<svg xmlns="http://www.w3.org/2000/svg" width="1440" height="900"><path d="M575,391L211,489L474,667Z" fill="#78c9ae" stroke="#78c9ae" stroke-width="1.51"/><path d="M575,391L98,232L211,489Z" fill="#8cd2be" stroke="#8cd2be" stroke-width="1.51"/><path d="M211,489L170,1038L474,667Z" fill="#76c5a1" stroke="#76c5a1" stroke-width="1.51"/><path d="M98,232L-73,496L211,489Z" fill="#99d7c5" stroke="#99d7c5" stroke-width="1.51"/><path d="M575,391L687,-39L98,232Z" fill="#91d5c3" stroke="#91d5c3" stroke-width="1.51"/><path d="M894,780L892,193L575,391Z" fill="#63c09f" stroke="#63c09f" stroke-width="1.51"/><path d="M474,667L894,780L575,391Z" fill="#62be99" stroke="#62be99" stroke-width="1.51"/><path d="M474,667L792,917L894,780Z" fill="#51b387" stroke="#51b387" stroke-width="1.51"/><path d="M594,1146L792,917L474,667Z" fill="#54ae80" stroke="#54ae80" stroke-width="1.51"/><path d="M892,193L687,-39L575,391Z" fill="#80cdb6" stroke="#80cdb6" stroke-width="1.51"/><path d="M-73,496L170,1038L211,489Z" fill="#87ccad" stroke="#87ccad" stroke-width="1.51"/><path d="M170,1038L594,1146L474,667Z" fill="#62b287" stroke="#62b287" stroke-width="1.51"/><path d="M687,-39L186,-178L98,232Z" fill="#ace0d4" stroke="#ace0d4" stroke-width="1.51"/><path d="M98,232L-339,260L-73,496Z" fill="#a9decf" stroke="#a9decf" stroke-width="1.51"/><path d="M-70,-133L-339,260L98,232Z" fill="#bce6dd" stroke="#bce6dd" stroke-width="1.51"/><path d="M-73,496L-318,964L170,1038Z" fill="#88c7a4" stroke="#88c7a4" stroke-width="1.51"/><path d="M1278,735L1182,433L894,780Z" fill="#45ae79" stroke="#45ae79" stroke-width="1.51"/><path d="M894,780L1182,433L892,193Z" fill="#58ba91" stroke="#58ba91" stroke-width="1.51"/><path d="M892,193L996,-43L687,-39Z" fill="#88cfb4" stroke="#88cfb4" stroke-width="1.51"/><path d="M186,-178L-70,-133L98,232Z" fill="#c1e7df" stroke="#c1e7df" stroke-width="1.51"/><path d="M-339,260L-369,589L-73,496Z" fill="#a4dbcb" stroke="#a4dbcb" stroke-width="1.51"/><path d="M687,-39L285,-372L186,-178Z" fill="#b6e3d9" stroke="#b6e3d9" stroke-width="1.51"/><path d="M1182,433L996,-43L892,193Z" fill="#71c4a1" stroke="#71c4a1" stroke-width="1.51"/><path d="M186,-178L285,-372L-70,-133Z" fill="#c9ebe5" stroke="#c9ebe5" stroke-width="1.51"/><path d="M459,-605L285,-372L687,-39Z" fill="#b7e3da" stroke="#b7e3da" stroke-width="1.51"/><path d="M-369,589L-318,964L-73,496Z" fill="#97d2b6" stroke="#97d2b6" stroke-width="1.51"/><path d="M170,1038L159,1373L594,1146Z" fill="#5fa77d" stroke="#5fa77d" stroke-width="1.51"/><path d="M1281,850L894,780L792,917Z" fill="#40a870" stroke="#40a870" stroke-width="1.51"/><path d="M1281,850L1278,735L894,780Z" fill="#3ba66a" stroke="#3ba66a" stroke-width="1.51"/><path d="M-318,964L159,1373L170,1038Z" fill="#78b38c" stroke="#78b38c" stroke-width="1.51"/><path d="M1239,1271L1281,850L792,917Z" fill="#319a5b" stroke="#319a5b" stroke-width="1.51"/><path d="M825,1339L792,917L594,1146Z" fill="#419d6c" stroke="#419d6c" stroke-width="1.51"/><path d="M683,1509L825,1339L594,1146Z" fill="#3c9164" stroke="#3c9164" stroke-width="1.51"/><path d="M-318,964L-342,1455L159,1373Z" fill="#78ad89" stroke="#78ad89" stroke-width="1.51"/><path d="M-369,589L-441,929L-318,964Z" fill="#94cbab" stroke="#94cbab" stroke-width="1.51"/><path d="M-697,95L-441,929L-369,589Z" fill="#a7dac7" stroke="#a7dac7" stroke-width="1.51"/><path d="M996,-43L981,-417L687,-39Z" fill="#97d4bc" stroke="#97d4bc" stroke-width="1.51"/><path d="M1470,50L1206,-161L996,-43Z" fill="#82c5a0" stroke="#82c5a0" stroke-width="1.51"/><path d="M1470,50L996,-43L1182,433Z" fill="#6ebe97" stroke="#6ebe97" stroke-width="1.51"/><path d="M825,1339L1239,1271L792,917Z" fill="#33955c" stroke="#33955c" stroke-width="1.51"/><path d="M159,1373L683,1509L594,1146Z" fill="#4d976f" stroke="#4d976f" stroke-width="1.51"/><path d="M-339,260L-697,95L-369,589Z" fill="#b6e2d8" stroke="#b6e2d8" stroke-width="1.51"/><path d="M-70,-133L-562,40L-339,260Z" fill="#caebe6" stroke="#caebe6" stroke-width="1.51"/><path d="M-290,-527L-562,40L-70,-133Z" fill="#dcf2f2" stroke="#dcf2f2" stroke-width="1.51"/><path d="M1206,-161L981,-417L996,-43Z" fill="#92d0b2" stroke="#92d0b2" stroke-width="1.51"/><path d="M285,-372L-290,-527L-70,-133Z" fill="#d9f1ef" stroke="#d9f1ef" stroke-width="1.51"/><path d="M981,-417L459,-605L687,-39Z" fill="#a8dcce" stroke="#a8dcce" stroke-width="1.51"/><path d="M-441,929L-446,1204L-318,964Z" fill="#8abe9a" stroke="#8abe9a" stroke-width="1.51"/><path d="M-697,95L-446,1204L-441,929Z" fill="#9bd2b5" stroke="#9bd2b5" stroke-width="1.51"/><path d="M981,-417L1668,-441L459,-605Z" fill="#9fd5ba" stroke="#9fd5ba" stroke-width="1.51"/><path d="M1206,-161L1167,-368L981,-417Z" fill="#95cfb2" stroke="#95cfb2" stroke-width="1.51"/><path d="M683,1509L1239,1271L825,1339Z" fill="#2f8856" stroke="#2f8856" stroke-width="1.51"/><path d="M1206,-161L1668,-441L1167,-368Z" fill="#8dc4a1" stroke="#8dc4a1" stroke-width="1.51"/><path d="M1652,307L1470,50L1182,433Z" fill="#5cae80" stroke="#5cae80" stroke-width="1.51"/><path d="M1610,552L1182,433L1278,735Z" fill="#42a66f" stroke="#42a66f" stroke-width="1.51"/><path d="M1610,552L1278,735L1627,951Z" fill="#2f9858" stroke="#2f9858" stroke-width="1.51"/><path d="M-562,40L-697,95L-339,260Z" fill="#c9eae4" stroke="#c9eae4" stroke-width="1.51"/><path d="M-584,-603L-697,95L-562,40Z" fill="#e2f4f3" stroke="#e2f4f3" stroke-width="1.51"/><path d="M1627,951L1278,735L1281,850Z" fill="#2e9655" stroke="#2e9655" stroke-width="1.51"/><path d="M-446,1204L-342,1455L-318,964Z" fill="#81b391" stroke="#81b391" stroke-width="1.51"/><path d="M159,1373L-342,1455L683,1509Z" fill="#609777" stroke="#609777" stroke-width="1.51"/><path d="M459,-605L-290,-527L285,-372Z" fill="#d3efea" stroke="#d3efea" stroke-width="1.51"/><path d="M1610,552L1652,307L1182,433Z" fill="#49a574" stroke="#49a574" stroke-width="1.51"/><path d="M1610,552L1842,475L1652,307Z" fill="#409b6b" stroke="#409b6b" stroke-width="1.51"/><path d="M1239,1271L1627,951L1281,850Z" fill="#248c47" stroke="#248c47" stroke-width="1.51"/><path d="M1627,951L1842,475L1610,552Z" fill="#309459" stroke="#309459" stroke-width="1.51"/><path d="M1652,307L1995,71L1470,50Z" fill="#5fa77d" stroke="#5fa77d" stroke-width="1.51"/><path d="M1470,50L1668,-441L1206,-161Z" fill="#82bc96" stroke="#82bc96" stroke-width="1.51"/><path d="M459,-605L-584,-603L-290,-527Z" fill="#e5f5f4" stroke="#e5f5f4" stroke-width="1.51"/><path d="M-290,-527L-584,-603L-562,40Z" fill="#e8f6fa" stroke="#e8f6fa" stroke-width="1.51"/><path d="M1842,475L1914,307L1652,307Z" fill="#469a6c" stroke="#469a6c" stroke-width="1.51"/><path d="M1995,71L1668,-441L1470,50Z" fill="#76b089" stroke="#76b089" stroke-width="1.51"/><path d="M1167,-368L1668,-441L981,-417Z" fill="#93c9a8" stroke="#93c9a8" stroke-width="1.51"/><path d="M1914,307L1995,71L1652,307Z" fill="#529c73" stroke="#529c73" stroke-width="1.51"/><path d="M1239,1271L1759,1422L1627,951Z" fill="#127a37" stroke="#127a37" stroke-width="1.51"/><path d="M1627,951L1966,1033L1842,475Z" fill="#208647" stroke="#208647" stroke-width="1.51"/><path d="M1842,475L1966,1033L1914,307Z" fill="#2f8a56" stroke="#2f8a56" stroke-width="1.51"/><path d="M1914,307L1966,1033L1995,71Z" fill="#388c60" stroke="#388c60" stroke-width="1.51"/><path d="M683,1509L1759,1422L1239,1271Z" fill="#1d7b42" stroke="#1d7b42" stroke-width="1.51"/><path d="M1759,1422L1966,1033L1627,951Z" fill="#0b7432" stroke="#0b7432" stroke-width="1.51"/><path d="M1668,-441L1884,-441L459,-605Z" fill="#93c7a4" stroke="#93c7a4" stroke-width="1.51"/><path d="M1995,71L1884,-441L1668,-441Z" fill="#7aab8a" stroke="#7aab8a" stroke-width="1.51"/><path d="M1759,1422L1983,1493L1966,1033Z" fill="#006227" stroke="#006227" stroke-width="1.51"/><path d="M1966,1033L1983,1493L1995,71Z" fill="#1b793e" stroke="#1b793e" stroke-width="1.51"/><path d="M683,1509L1983,1493L1759,1422Z" fill="#0f6930" stroke="#0f6930" stroke-width="1.51"/></svg>