<svg xmlns="http://www.w3.org/2000/svg" width="1440" height="900"><path d="M840,781L608,799L824,1013Z" fill="#8c74b5" stroke="#8c74b5" stroke-width="1.51"/><path d="M608,799L405,956L824,1013Z" fill="#8f78b7" stroke="#8f78b7" stroke-width="1.51"/><path d="M824,1013L1113,869L840,781Z" fill="#8c68af" stroke="#8c68af" stroke-width="1.51"/><path d="M824,1013L992,1282L1113,869Z" fill="#8b5aa6" stroke="#8b5aa6" stroke-width="1.51"/><path d="M588,1492L992,1282L824,1013Z" fill="#8b579e" stroke="#8b579e" stroke-width="1.51"/><path d="M405,956L588,1492L824,1013Z" fill="#8f69aa" stroke="#8f69aa" stroke-width="1.51"/><path d="M-29,737L208,1073L405,956Z" fill="#9e89c1" stroke="#9e89c1" stroke-width="1.51"/><path d="M208,1073L588,1492L405,956Z" fill="#9573ae" stroke="#9573ae" stroke-width="1.51"/><path d="M608,799L102,584L405,956Z" fill="#968fc3" stroke="#968fc3" stroke-width="1.51"/><path d="M511,162L102,584L608,799Z" fill="#95a1cc" stroke="#95a1cc" stroke-width="1.51"/><path d="M840,781L511,162L608,799Z" fill="#8e8fc3" stroke="#8e8fc3" stroke-width="1.51"/><path d="M1113,869L1340,521L840,781Z" fill="#8c6ab0" stroke="#8c6ab0" stroke-width="1.51"/><path d="M1707,825L1340,521L1113,869Z" fill="#8b58a8" stroke="#8b58a8" stroke-width="1.51"/><path d="M965,133L511,162L840,781Z" fill="#8f99c8" stroke="#8f99c8" stroke-width="1.51"/><path d="M102,584L-29,737L405,956Z" fill="#a097c7" stroke="#a097c7" stroke-width="1.51"/><path d="M992,1282L1392,1312L1113,869Z" fill="#88479a" stroke="#88479a" stroke-width="1.51"/><path d="M1524,1424L1392,1312L992,1282Z" fill="#7e3388" stroke="#7e3388" stroke-width="1.51"/><path d="M1340,521L965,133L840,781Z" fill="#8d81bb" stroke="#8d81bb" stroke-width="1.51"/><path d="M1340,521L1179,119L965,133Z" fill="#948ac0" stroke="#948ac0" stroke-width="1.51"/><path d="M965,133L630,-72L511,162Z" fill="#9caed3" stroke="#9caed3" stroke-width="1.51"/><path d="M208,1073L83,1514L588,1492Z" fill="#8e6ca1" stroke="#8e6ca1" stroke-width="1.51"/><path d="M-356,1405L83,1514L208,1073Z" fill="#9f77aa" stroke="#9f77aa" stroke-width="1.51"/><path d="M-29,737L-176,845L208,1073Z" fill="#a792c5" stroke="#a792c5" stroke-width="1.51"/><path d="M-460,529L-176,845L-29,737Z" fill="#b0a7d0" stroke="#b0a7d0" stroke-width="1.51"/><path d="M-246,324L-29,737L102,584Z" fill="#a9aed3" stroke="#a9aed3" stroke-width="1.51"/><path d="M1179,119L1065,44L965,133Z" fill="#9b97c8" stroke="#9b97c8" stroke-width="1.51"/><path d="M1392,1312L1707,825L1113,869Z" fill="#89439d" stroke="#89439d" stroke-width="1.51"/><path d="M588,1492L1524,1424L992,1282Z" fill="#7b438a" stroke="#7b438a" stroke-width="1.51"/><path d="M511,162L274,24L102,584Z" fill="#9fb8d8" stroke="#9fb8d8" stroke-width="1.51"/><path d="M1087,-125L630,-72L965,133Z" fill="#a2a6cf" stroke="#a2a6cf" stroke-width="1.51"/><path d="M1524,1424L1707,825L1392,1312Z" fill="#852c8c" stroke="#852c8c" stroke-width="1.51"/><path d="M1340,521L1569,-6L1179,119Z" fill="#9682bc" stroke="#9682bc" stroke-width="1.51"/><path d="M630,-72L274,24L511,162Z" fill="#a4bcda" stroke="#a4bcda" stroke-width="1.51"/><path d="M274,24L15,126L102,584Z" fill="#a7bfdb" stroke="#a7bfdb" stroke-width="1.51"/><path d="M1707,825L1721,538L1340,521Z" fill="#8b57a3" stroke="#8b57a3" stroke-width="1.51"/><path d="M1065,44L1087,-125L965,133Z" fill="#a09dca" stroke="#a09dca" stroke-width="1.51"/><path d="M1179,119L1087,-125L1065,44Z" fill="#a199c8" stroke="#a199c8" stroke-width="1.51"/><path d="M1569,-6L1087,-125L1179,119Z" fill="#a290c4" stroke="#a290c4" stroke-width="1.51"/><path d="M15,126L-246,324L102,584Z" fill="#abbddb" stroke="#abbddb" stroke-width="1.51"/><path d="M1721,538L1726,340L1340,521Z" fill="#8c64aa" stroke="#8c64aa" stroke-width="1.51"/><path d="M1721,538L2015,650L1726,340Z" fill="#8a579c" stroke="#8a579c" stroke-width="1.51"/><path d="M1707,825L2015,650L1721,538Z" fill="#884997" stroke="#884997" stroke-width="1.51"/><path d="M1524,1424L1882,872L1707,825Z" fill="#852e8e" stroke="#852e8e" stroke-width="1.51"/><path d="M-480,1417L-356,1405L-606,1168Z" fill="#b184b1" stroke="#b184b1" stroke-width="1.51"/><path d="M-176,845L-356,1405L208,1073Z" fill="#ab86bb" stroke="#ab86bb" stroke-width="1.51"/><path d="M1726,340L1569,-6L1340,521Z" fill="#9274b2" stroke="#9274b2" stroke-width="1.51"/><path d="M-246,324L-460,529L-29,737Z" fill="#b1b6d8" stroke="#b1b6d8" stroke-width="1.51"/><path d="M1882,872L2015,650L1707,825Z" fill="#823e8e" stroke="#823e8e" stroke-width="1.51"/><path d="M1726,340L2089,240L1569,-6Z" fill="#956faa" stroke="#956faa" stroke-width="1.51"/><path d="M-356,1405L-480,1417L83,1514Z" fill="#9c78a2" stroke="#9c78a2" stroke-width="1.51"/><path d="M-606,1168L-356,1405L-176,845Z" fill="#b68dbf" stroke="#b68dbf" stroke-width="1.51"/><path d="M1667,-397L1065,-414L1087,-125Z" fill="#b49dcc" stroke="#b49dcc" stroke-width="1.51"/><path d="M1087,-125L1065,-414L630,-72Z" fill="#adacd3" stroke="#adacd3" stroke-width="1.51"/><path d="M53,-588L-114,-171L274,24Z" fill="#c6d7e9" stroke="#c6d7e9" stroke-width="1.51"/><path d="M274,24L-114,-171L15,126Z" fill="#b8cde3" stroke="#b8cde3" stroke-width="1.51"/><path d="M709,-522L274,24L630,-72Z" fill="#b0c2de" stroke="#b0c2de" stroke-width="1.51"/><path d="M15,126L-114,-171L-246,324Z" fill="#bacfe4" stroke="#bacfe4" stroke-width="1.51"/><path d="M-246,324L-632,210L-460,529Z" fill="#bcc9e1" stroke="#bcc9e1" stroke-width="1.51"/><path d="M-460,529L-606,1168L-176,845Z" fill="#b8a2ce" stroke="#b8a2ce" stroke-width="1.51"/><path d="M1524,1424L1975,1480L1882,872Z" fill="#81107c" stroke="#81107c" stroke-width="1.51"/><path d="M1882,872L1975,1480L2015,650Z" fill="#792780" stroke="#792780" stroke-width="1.51"/><path d="M588,1492L1975,1480L1524,1424Z" fill="#712b7a" stroke="#712b7a" stroke-width="1.51"/><path d="M83,1514L1975,1480L588,1492Z" fill="#724885" stroke="#724885" stroke-width="1.51"/><path d="M1065,-414L709,-522L630,-72Z" fill="#b5bada" stroke="#b5bada" stroke-width="1.51"/><path d="M1065,-414L1103,-530L709,-522Z" fill="#bcb5d8" stroke="#bcb5d8" stroke-width="1.51"/><path d="M1667,-397L1103,-530L1065,-414Z" fill="#baa2ce" stroke="#baa2ce" stroke-width="1.51"/><path d="M1569,-6L1667,-397L1087,-125Z" fill="#ac8ec3" stroke="#ac8ec3" stroke-width="1.51"/><path d="M2015,650L2089,240L1726,340Z" fill="#825a97" stroke="#825a97" stroke-width="1.51"/><path d="M1975,1480L2089,240L2015,650Z" fill="#763983" stroke="#763983" stroke-width="1.51"/><path d="M-460,529L-632,210L-606,1168Z" fill="#bdb5d8" stroke="#bdb5d8" stroke-width="1.51"/><path d="M-673,-66L-632,210L-246,324Z" fill="#c6d8e9" stroke="#c6d8e9" stroke-width="1.51"/><path d="M-114,-171L-673,-66L-246,324Z" fill="#c8daea" stroke="#c8daea" stroke-width="1.51"/><path d="M53,-588L-240,-316L-114,-171Z" fill="#d4e3ef" stroke="#d4e3ef" stroke-width="1.51"/><path d="M1910,-334L1667,-397L1569,-6Z" fill="#af84b8" stroke="#af84b8" stroke-width="1.51"/><path d="M709,-522L53,-588L274,24Z" fill="#c0d4e7" stroke="#c0d4e7" stroke-width="1.51"/><path d="M1103,-530L53,-588L709,-522Z" fill="#c1cbe2" stroke="#c1cbe2" stroke-width="1.51"/><path d="M2112,-228L1910,-334L1569,-6Z" fill="#a57bae" stroke="#a57bae" stroke-width="1.51"/><path d="M-240,-316L-673,-66L-114,-171Z" fill="#d5e3ef" stroke="#d5e3ef" stroke-width="1.51"/><path d="M-632,210L-673,-66L-606,1168Z" fill="#c0c7e1" stroke="#c0c7e1" stroke-width="1.51"/><path d="M-565,-575L-673,-66L-240,-316Z" fill="#e2edf5" stroke="#e2edf5" stroke-width="1.51"/><path d="M2089,240L2112,-228L1569,-6Z" fill="#9672a5" stroke="#9672a5" stroke-width="1.51"/><path d="M53,-588L-565,-575L-240,-316Z" fill="#e1ecf4" stroke="#e1ecf4" stroke-width="1.51"/></svg>