<svg xmlns="http://www.w3.org/2000/svg" width="1440" height="900"><path d="M840,781L608,799L824,1013Z" fill="#797979" stroke="#797979" stroke-width="1.51"/><path d="M608,799L405,956L824,1013Z" fill="#7d7d7d" stroke="#7d7d7d" stroke-width="1.51"/><path d="M824,1013L1113,869L840,781Z" fill="#707070" stroke="#707070" stroke-width="1.51"/><path d="M824,1013L992,1282L1113,869Z" fill="#616161" stroke="#616161" stroke-width="1.51"/><path d="M588,1492L992,1282L824,1013Z" fill="#575757" stroke="#575757" stroke-width="1.51"/><path d="M405,956L588,1492L824,1013Z" fill="#6a6a6a" stroke="#6a6a6a" stroke-width="1.51"/><path d="M-29,737L208,1073L405,956Z" fill="#909090" stroke="#909090" stroke-width="1.51"/><path d="M208,1073L588,1492L405,956Z" fill="#727272" stroke="#727272" stroke-width="1.51"/><path d="M608,799L102,584L405,956Z" fill="#939393" stroke="#939393" stroke-width="1.51"/><path d="M511,162L102,584L608,799Z" fill="#a2a2a2" stroke="#a2a2a2" stroke-width="1.51"/><path d="M840,781L511,162L608,799Z" fill="#919191" stroke="#919191" stroke-width="1.51"/><path d="M1113,869L1340,521L840,781Z" fill="#727272" stroke="#727272" stroke-width="1.51"/><path d="M1707,825L1340,521L1113,869Z" fill="#646464" stroke="#646464" stroke-width="1.51"/><path d="M965,133L511,162L840,781Z" fill="#9a9a9a" stroke="#9a9a9a" stroke-width="1.51"/><path d="M102,584L-29,737L405,956Z" fill="#9c9c9c" stroke="#9c9c9c" stroke-width="1.51"/><path d="M992,1282L1392,1312L1113,869Z" fill="#505050" stroke="#505050" stroke-width="1.51"/><path d="M1524,1424L1392,1312L992,1282Z" fill="#3b3b3b" stroke="#3b3b3b" stroke-width="1.51"/><path d="M1340,521L965,133L840,781Z" fill="#848484" stroke="#848484" stroke-width="1.51"/><path d="M1340,521L1179,119L965,133Z" fill="#8e8e8e" stroke="#8e8e8e" stroke-width="1.51"/><path d="M965,133L630,-72L511,162Z" fill="#b0b0b0" stroke="#b0b0b0" stroke-width="1.51"/><path d="M208,1073L83,1514L588,1492Z" fill="#686868" stroke="#686868" stroke-width="1.51"/><path d="M-356,1405L83,1514L208,1073Z" fill="#747474" stroke="#747474" stroke-width="1.51"/><path d="M-29,737L-176,845L208,1073Z" fill="#9a9a9a" stroke="#9a9a9a" stroke-width="1.51"/><path d="M-460,529L-176,845L-29,737Z" fill="#acacac" stroke="#acacac" stroke-width="1.51"/><path d="M-246,324L-29,737L102,584Z" fill="#b2b2b2" stroke="#b2b2b2" stroke-width="1.51"/><path d="M1179,119L1065,44L965,133Z" fill="#9c9c9c" stroke="#9c9c9c" stroke-width="1.51"/><path d="M1392,1312L1707,825L1113,869Z" fill="#525252" stroke="#525252" stroke-width="1.51"/><path d="M588,1492L1524,1424L992,1282Z" fill="#444444" stroke="#444444" stroke-width="1.51"/><path d="M511,162L274,24L102,584Z" fill="#bababa" stroke="#bababa" stroke-width="1.51"/><path d="M1087,-125L630,-72L965,133Z" fill="#ababab" stroke="#ababab" stroke-width="1.51"/><path d="M1524,1424L1707,825L1392,1312Z" fill="#3b3b3b" stroke="#3b3b3b" stroke-width="1.51"/><path d="M1340,521L1569,-6L1179,119Z" fill="#878787" stroke="#878787" stroke-width="1.51"/><path d="M630,-72L274,24L511,162Z" fill="#bebebe" stroke="#bebebe" stroke-width="1.51"/><path d="M274,24L15,126L102,584Z" fill="#c1c1c1" stroke="#c1c1c1" stroke-width="1.51"/><path d="M1707,825L1721,538L1340,521Z" fill="#5e5e5e" stroke="#5e5e5e" stroke-width="1.51"/><path d="M1065,44L1087,-125L965,133Z" fill="#a1a1a1" stroke="#a1a1a1" stroke-width="1.51"/><path d="M1179,119L1087,-125L1065,44Z" fill="#9e9e9e" stroke="#9e9e9e" stroke-width="1.51"/><path d="M1569,-6L1087,-125L1179,119Z" fill="#979797" stroke="#979797" stroke-width="1.51"/><path d="M15,126L-246,324L102,584Z" fill="#c0c0c0" stroke="#c0c0c0" stroke-width="1.51"/><path d="M1721,538L1726,340L1340,521Z" fill="#676767" stroke="#676767" stroke-width="1.51"/><path d="M1721,538L2015,650L1726,340Z" fill="#565656" stroke="#565656" stroke-width="1.51"/><path d="M1707,825L2015,650L1721,538Z" fill="#4c4c4c" stroke="#4c4c4c" stroke-width="1.51"/><path d="M1524,1424L1882,872L1707,825Z" fill="#3c3c3c" stroke="#3c3c3c" stroke-width="1.51"/><path d="M-480,1417L-356,1405L-606,1168Z" fill="#808080" stroke="#808080" stroke-width="1.51"/><path d="M-176,845L-356,1405L208,1073Z" fill="#8b8b8b" stroke="#8b8b8b" stroke-width="1.51"/><path d="M1726,340L1569,-6L1340,521Z" fill="#777777" stroke="#777777" stroke-width="1.51"/><path d="M-246,324L-460,529L-29,737Z" fill="#b9b9b9" stroke="#b9b9b9" stroke-width="1.51"/><path d="M1882,872L2015,650L1707,825Z" fill="#434343" stroke="#434343" stroke-width="1.51"/><path d="M1726,340L2089,240L1569,-6Z" fill="#6c6c6c" stroke="#6c6c6c" stroke-width="1.51"/><path d="M-356,1405L-480,1417L83,1514Z" fill="#737373" stroke="#737373" stroke-width="1.51"/><path d="M-606,1168L-356,1405L-176,845Z" fill="#8f8f8f" stroke="#8f8f8f" stroke-width="1.51"/><path d="M1667,-397L1065,-414L1087,-125Z" fill="#a4a4a4" stroke="#a4a4a4" stroke-width="1.51"/><path d="M1087,-125L1065,-414L630,-72Z" fill="#b1b1b1" stroke="#b1b1b1" stroke-width="1.51"/><path d="M53,-588L-114,-171L274,24Z" fill="#dcdcdc" stroke="#dcdcdc" stroke-width="1.51"/><path d="M274,24L-114,-171L15,126Z" fill="#d2d2d2" stroke="#d2d2d2" stroke-width="1.51"/><path d="M709,-522L274,24L630,-72Z" fill="#c5c5c5" stroke="#c5c5c5" stroke-width="1.51"/><path d="M15,126L-114,-171L-246,324Z" fill="#d3d3d3" stroke="#d3d3d3" stroke-width="1.51"/><path d="M-246,324L-632,210L-460,529Z" fill="#cbcbcb" stroke="#cbcbcb" stroke-width="1.51"/><path d="M-460,529L-606,1168L-176,845Z" fill="#a8a8a8" stroke="#a8a8a8" stroke-width="1.51"/><path d="M1524,1424L1975,1480L1882,872Z" fill="#252525" stroke="#252525" stroke-width="1.51"/><path d="M1882,872L1975,1480L2015,650Z" fill="#333333" stroke="#333333" stroke-width="1.51"/><path d="M588,1492L1975,1480L1524,1424Z" fill="#323232" stroke="#323232" stroke-width="1.51"/><path d="M83,1514L1975,1480L588,1492Z" fill="#444444" stroke="#444444" stroke-width="1.51"/><path d="M1065,-414L709,-522L630,-72Z" fill="#bdbdbd" stroke="#bdbdbd" stroke-width="1.51"/><path d="M1065,-414L1103,-530L709,-522Z" fill="#b9b9b9" stroke="#b9b9b9" stroke-width="1.51"/><path d="M1667,-397L1103,-530L1065,-414Z" fill="#a8a8a8" stroke="#a8a8a8" stroke-width="1.51"/><path d="M1569,-6L1667,-397L1087,-125Z" fill="#969696" stroke="#969696" stroke-width="1.51"/><path d="M2015,650L2089,240L1726,340Z" fill="#565656" stroke="#565656" stroke-width="1.51"/><path d="M1975,1480L2089,240L2015,650Z" fill="#3c3c3c" stroke="#3c3c3c" stroke-width="1.51"/><path d="M-460,529L-632,210L-606,1168Z" fill="#bababa" stroke="#bababa" stroke-width="1.51"/><path d="M-673,-66L-632,210L-246,324Z" fill="#dbdbdb" stroke="#dbdbdb" stroke-width="1.51"/><path d="M-114,-171L-673,-66L-246,324Z" fill="#dedede" stroke="#dedede" stroke-width="1.51"/><path d="M53,-588L-240,-316L-114,-171Z" fill="#e7e7e7" stroke="#e7e7e7" stroke-width="1.51"/><path d="M1910,-334L1667,-397L1569,-6Z" fill="#858585" stroke="#858585" stroke-width="1.51"/><path d="M709,-522L53,-588L274,24Z" fill="#d7d7d7" stroke="#d7d7d7" stroke-width="1.51"/><path d="M1103,-530L53,-588L709,-522Z" fill="#cccccc" stroke="#cccccc" stroke-width="1.51"/><path d="M2112,-228L1910,-334L1569,-6Z" fill="#797979" stroke="#797979" stroke-width="1.51"/><path d="M-240,-316L-673,-66L-114,-171Z" fill="#e8e8e8" stroke="#e8e8e8" stroke-width="1.51"/><path d="M-632,210L-673,-66L-606,1168Z" fill="#c9c9c9" stroke="#c9c9c9" stroke-width="1.51"/><path d="M-565,-575L-673,-66L-240,-316Z" fill="#f1f1f1" stroke="#f1f1f1" stroke-width="1.51"/><path d="M2089,240L2112,-228L1569,-6Z" fill="#6e6e6e" stroke="#6e6e6e" stroke-width="1.51"/><path d="M53,-588L-565,-575L-240,-316Z" fill="#f0f0f0" stroke="#f0f0f0" stroke-width="1.51"/></svg>