<svg xmlns="http://www.w3.org/2000/svg" width="1440" height="900"><path d="M840,781L608,799L824,1013Z" fill="#cfeacb" stroke="#cfeacb" stroke-width="1.51"/><path d="M608,799L405,956L824,1013Z" fill="#c6dfc2" stroke="#c6dfc2" stroke-width="1.51"/><path d="M824,1013L1113,869L840,781Z" fill="#c3e6bd" stroke="#c3e6bd" stroke-width="1.51"/><path d="M824,1013L992,1282L1113,869Z" fill="#a4d4a1" stroke="#a4d4a1" stroke-width="1.51"/><path d="M588,1492L992,1282L824,1013Z" fill="#91bd94" stroke="#91bd94" stroke-width="1.51"/><path d="M405,956L588,1492L824,1013Z" fill="#a1c5a2" stroke="#a1c5a2" stroke-width="1.51"/><path d="M-29,737L208,1073L405,956Z" fill="#b4c1b4" stroke="#b4c1b4" stroke-width="1.51"/><path d="M208,1073L588,1492L405,956Z" fill="#99b69a" stroke="#99b69a" stroke-width="1.51"/><path d="M608,799L102,584L405,956Z" fill="#d0d8ce" stroke="#d0d8ce" stroke-width="1.51"/><path d="M511,162L102,584L608,799Z" fill="#e9e2e9" stroke="#e9e2e9" stroke-width="1.51"/><path d="M840,781L511,162L608,799Z" fill="#ecf1eb" stroke="#ecf1eb" stroke-width="1.51"/><path d="M1113,869L1340,521L840,781Z" fill="#cbeac4" stroke="#cbeac4" stroke-width="1.51"/><path d="M1707,825L1340,521L1113,869Z" fill="#acdba7" stroke="#acdba7" stroke-width="1.51"/><path d="M965,133L511,162L840,781Z" fill="#f1eff1" stroke="#f1eff1" stroke-width="1.51"/><path d="M102,584L-29,737L405,956Z" fill="#c5c7c7" stroke="#c5c7c7" stroke-width="1.51"/><path d="M992,1282L1392,1312L1113,869Z" fill="#85c286" stroke="#85c286" stroke-width="1.51"/><path d="M1524,1424L1392,1312L992,1282Z" fill="#62a568" stroke="#62a568" stroke-width="1.51"/><path d="M1340,521L965,133L840,781Z" fill="#e3f2df" stroke="#e3f2df" stroke-width="1.51"/><path d="M1340,521L1179,119L965,133Z" fill="#d4dfd1" stroke="#d4dfd1" stroke-width="1.51"/><path d="M965,133L630,-72L511,162Z" fill="#e1d3e6" stroke="#e1d3e6" stroke-width="1.51"/><path d="M208,1073L83,1514L588,1492Z" fill="#7d9683" stroke="#7d9683" stroke-width="1.51"/><path d="M-356,1405L83,1514L208,1073Z" fill="#6d8077" stroke="#6d8077" stroke-width="1.51"/><path d="M-29,737L-176,845L208,1073Z" fill="#adb3af" stroke="#adb3af" stroke-width="1.51"/><path d="M-460,529L-176,845L-29,737Z" fill="#b2a4b6" stroke="#b2a4b6" stroke-width="1.51"/><path d="M-246,324L-29,737L102,584Z" fill="#c8b9cf" stroke="#c8b9cf" stroke-width="1.51"/><path d="M1179,119L1065,44L965,133Z" fill="#d0d1d0" stroke="#d0d1d0" stroke-width="1.51"/><path d="M1392,1312L1707,825L1113,869Z" fill="#84c682" stroke="#84c682" stroke-width="1.51"/><path d="M588,1492L1524,1424L992,1282Z" fill="#76a779" stroke="#76a779" stroke-width="1.51"/><path d="M511,162L274,24L102,584Z" fill="#dfcbe3" stroke="#dfcbe3" stroke-width="1.51"/><path d="M1087,-125L630,-72L965,133Z" fill="#d1c7d5" stroke="#d1c7d5" stroke-width="1.51"/><path d="M1524,1424L1707,825L1392,1312Z" fill="#54a65c" stroke="#54a65c" stroke-width="1.51"/><path d="M1340,521L1569,-6L1179,119Z" fill="#bed1bb" stroke="#bed1bb" stroke-width="1.51"/><path d="M630,-72L274,24L511,162Z" fill="#d7c1dd" stroke="#d7c1dd" stroke-width="1.51"/><path d="M274,24L15,126L102,584Z" fill="#d4bcdb" stroke="#d4bcdb" stroke-width="1.51"/><path d="M1707,825L1721,538L1340,521Z" fill="#9dcf9b" stroke="#9dcf9b" stroke-width="1.51"/><path d="M1065,44L1087,-125L965,133Z" fill="#ccc9ce" stroke="#ccc9ce" stroke-width="1.51"/><path d="M1179,119L1087,-125L1065,44Z" fill="#c6c7c8" stroke="#c6c7c8" stroke-width="1.51"/><path d="M1569,-6L1087,-125L1179,119Z" fill="#b6beb8" stroke="#b6beb8" stroke-width="1.51"/><path d="M15,126L-246,324L102,584Z" fill="#cbb3d4" stroke="#cbb3d4" stroke-width="1.51"/><path d="M1721,538L1726,340L1340,521Z" fill="#a9d1a8" stroke="#a9d1a8" stroke-width="1.51"/><path d="M1721,538L2015,650L1726,340Z" fill="#8fbb92" stroke="#8fbb92" stroke-width="1.51"/><path d="M1707,825L2015,650L1721,538Z" fill="#84b986" stroke="#84b986" stroke-width="1.51"/><path d="M1524,1424L1882,872L1707,825Z" fill="#58a860" stroke="#58a860" stroke-width="1.51"/><path d="M-480,1417L-356,1405L-606,1168Z" fill="#565359" stroke="#565359" stroke-width="1.51"/><path d="M-176,845L-356,1405L208,1073Z" fill="#839488" stroke="#839488" stroke-width="1.51"/><path d="M1726,340L1569,-6L1340,521Z" fill="#abc9aa" stroke="#abc9aa" stroke-width="1.51"/><path d="M-246,324L-460,529L-29,737Z" fill="#bea4c3" stroke="#bea4c3" stroke-width="1.51"/><path d="M1882,872L2015,650L1707,825Z" fill="#72ae75" stroke="#72ae75" stroke-width="1.51"/><path d="M1726,340L2089,240L1569,-6Z" fill="#8daa90" stroke="#8daa90" stroke-width="1.51"/><path d="M-356,1405L-480,1417L83,1514Z" fill="#585c60" stroke="#585c60" stroke-width="1.51"/><path d="M-606,1168L-356,1405L-176,845Z" fill="#737274" stroke="#737274" stroke-width="1.51"/><path d="M1667,-397L1065,-414L1087,-125Z" fill="#9e959f" stroke="#9e959f" stroke-width="1.51"/><path d="M1087,-125L1065,-414L630,-72Z" fill="#beafc4" stroke="#beafc4" stroke-width="1.51"/><path d="M53,-588L-114,-171L274,24Z" fill="#a57cb4" stroke="#a57cb4" stroke-width="1.51"/><path d="M274,24L-114,-171L15,126Z" fill="#b99ac7" stroke="#b99ac7" stroke-width="1.51"/><path d="M709,-522L274,24L630,-72Z" fill="#c4a8cd" stroke="#c4a8cd" stroke-width="1.51"/><path d="M15,126L-114,-171L-246,324Z" fill="#b695c3" stroke="#b695c3" stroke-width="1.51"/><path d="M-246,324L-632,210L-460,529Z" fill="#b387b7" stroke="#b387b7" stroke-width="1.51"/><path d="M-460,529L-606,1168L-176,845Z" fill="#998898" stroke="#998898" stroke-width="1.51"/><path d="M1524,1424L1975,1480L1882,872Z" fill="#2e8642" stroke="#2e8642" stroke-width="1.51"/><path d="M1882,872L1975,1480L2015,650Z" fill="#4b9454" stroke="#4b9454" stroke-width="1.51"/><path d="M588,1492L1975,1480L1524,1424Z" fill="#519057" stroke="#519057" stroke-width="1.51"/><path d="M83,1514L1975,1480L588,1492Z" fill="#789c7b" stroke="#789c7b" stroke-width="1.51"/><path d="M1065,-414L709,-522L630,-72Z" fill="#ba9bbf" stroke="#ba9bbf" stroke-width="1.51"/><path d="M1065,-414L1103,-530L709,-522Z" fill="#a386a4" stroke="#a386a4" stroke-width="1.51"/><path d="M1667,-397L1103,-530L1065,-414Z" fill="#928290" stroke="#928290" stroke-width="1.51"/><path d="M1569,-6L1667,-397L1087,-125Z" fill="#959e99" stroke="#959e99" stroke-width="1.51"/><path d="M2015,650L2089,240L1726,340Z" fill="#89ad8d" stroke="#89ad8d" stroke-width="1.51"/><path d="M1975,1480L2089,240L2015,650Z" fill="#689e6b" stroke="#689e6b" stroke-width="1.51"/><path d="M-460,529L-632,210L-606,1168Z" fill="#9f839f" stroke="#9f839f" stroke-width="1.51"/><path d="M-673,-66L-632,210L-246,324Z" fill="#a071a7" stroke="#a071a7" stroke-width="1.51"/><path d="M-114,-171L-673,-66L-246,324Z" fill="#a374af" stroke="#a374af" stroke-width="1.51"/><path d="M53,-588L-240,-316L-114,-171Z" fill="#8f5b9e" stroke="#8f5b9e" stroke-width="1.51"/><path d="M1910,-334L1667,-397L1569,-6Z" fill="#737e79" stroke="#737e79" stroke-width="1.51"/><path d="M709,-522L53,-588L274,24Z" fill="#ae80b6" stroke="#ae80b6" stroke-width="1.51"/><path d="M1103,-530L53,-588L709,-522Z" fill="#a37ca7" stroke="#a37ca7" stroke-width="1.51"/><path d="M2112,-228L1910,-334L1569,-6Z" fill="#697972" stroke="#697972" stroke-width="1.51"/><path d="M-240,-316L-673,-66L-114,-171Z" fill="#8f5a9e" stroke="#8f5a9e" stroke-width="1.51"/><path d="M-632,210L-673,-66L-606,1168Z" fill="#a27fa6" stroke="#a27fa6" stroke-width="1.51"/><path d="M-565,-575L-673,-66L-240,-316Z" fill="#783685" stroke="#783685" stroke-width="1.51"/><path d="M2089,240L2112,-228L1569,-6Z" fill="#74897d" stroke="#74897d" stroke-width="1.51"/><path d="M53,-588L-565,-575L-240,-316Z" fill="#783a85" stroke="#783a85" stroke-width="1.51"/></svg>