<svg xmlns="http://www.w3.org/2000/svg" width="1440" height="900"><path d="M723,653L489,855L833,957Z" fill="#e1dfdd" stroke="#e1dfdd" stroke-width="1.51"/><path d="M489,855L710,1383L833,957Z" fill="#c6c3c2" stroke="#c6c3c2" stroke-width="1.51"/><path d="M367,531L307,844L489,855Z" fill="#e8d3c7" stroke="#e8d3c7" stroke-width="1.51"/><path d="M723,653L367,531L489,855Z" fill="#eee3dc" stroke="#eee3dc" stroke-width="1.51"/><path d="M307,844L710,1383L489,855Z" fill="#cabdb5" stroke="#cabdb5" stroke-width="1.51"/><path d="M367,531L184,552L307,844Z" fill="#f0d2c3" stroke="#f0d2c3" stroke-width="1.51"/><path d="M710,1383L948,1411L833,957Z" fill="#a5a5a5" stroke="#a5a5a5" stroke-width="1.51"/><path d="M723,653L583,165L367,531Z" fill="#fff5ef" stroke="#fff5ef" stroke-width="1.51"/><path d="M367,531L68,435L184,552Z" fill="#fad4c3" stroke="#fad4c3" stroke-width="1.51"/><path d="M1047,259L583,165L723,653Z" fill="#fcf4ef" stroke="#fcf4ef" stroke-width="1.51"/><path d="M1331,457L1047,259L723,653Z" fill="#ededed" stroke="#ededed" stroke-width="1.51"/><path d="M1331,457L723,653L833,957Z" fill="#e0e0e0" stroke="#e0e0e0" stroke-width="1.51"/><path d="M948,1411L1381,979L833,957Z" fill="#adadad" stroke="#adadad" stroke-width="1.51"/><path d="M243,-19L68,435L367,531Z" fill="#fcceb8" stroke="#fcceb8" stroke-width="1.51"/><path d="M-112,558L-104,1048L307,844Z" fill="#dca898" stroke="#dca898" stroke-width="1.51"/><path d="M1381,979L1331,457L833,957Z" fill="#c9c9c9" stroke="#c9c9c9" stroke-width="1.51"/><path d="M307,844L38,1412L710,1383Z" fill="#af988c" stroke="#af988c" stroke-width="1.51"/><path d="M-112,558L307,844L184,552Z" fill="#eec2b0" stroke="#eec2b0" stroke-width="1.51"/><path d="M948,1411L1308,1393L1381,979Z" fill="#8e8e8e" stroke="#8e8e8e" stroke-width="1.51"/><path d="M1331,457L1385,387L1047,259Z" fill="#dfd8d4" stroke="#dfd8d4" stroke-width="1.51"/><path d="M1740,602L1385,387L1331,457Z" fill="#c8c8c8" stroke="#c8c8c8" stroke-width="1.51"/><path d="M68,435L-112,558L184,552Z" fill="#f6c2b1" stroke="#f6c2b1" stroke-width="1.51"/><path d="M-104,1048L38,1412L307,844Z" fill="#bc8f7e" stroke="#bc8f7e" stroke-width="1.51"/><path d="M710,1383L-297,1521L948,1411Z" fill="#8f8178" stroke="#8f8178" stroke-width="1.51"/><path d="M1400,-146L960,-10L1047,259Z" fill="#e5bcab" stroke="#e5bcab" stroke-width="1.51"/><path d="M1047,259L960,-10L583,165Z" fill="#f6d9cb" stroke="#f6d9cb" stroke-width="1.51"/><path d="M1381,979L1596,830L1331,457Z" fill="#b8b8b8" stroke="#b8b8b8" stroke-width="1.51"/><path d="M1716,1322L1596,830L1381,979Z" fill="#8f8f8f" stroke="#8f8f8f" stroke-width="1.51"/><path d="M583,165L243,-19L367,531Z" fill="#fdd7c1" stroke="#fdd7c1" stroke-width="1.51"/><path d="M-242,104L-372,519L-112,558Z" fill="#eca294" stroke="#eca294" stroke-width="1.51"/><path d="M960,-10L410,-53L583,165Z" fill="#fdcfbb" stroke="#fdcfbb" stroke-width="1.51"/><path d="M410,-53L243,-19L583,165Z" fill="#fabfa4" stroke="#fabfa4" stroke-width="1.51"/><path d="M1596,830L1740,602L1331,457Z" fill="#b7b7b7" stroke="#b7b7b7" stroke-width="1.51"/><path d="M1385,387L1400,-146L1047,259Z" fill="#dcc3b7" stroke="#dcc3b7" stroke-width="1.51"/><path d="M1829,777L1740,602L1596,830Z" fill="#9d9d9d" stroke="#9d9d9d" stroke-width="1.51"/><path d="M-104,1048L-365,1139L38,1412Z" fill="#a4685c" stroke="#a4685c" stroke-width="1.51"/><path d="M-372,519L-365,1139L-104,1048Z" fill="#c58076" stroke="#c58076" stroke-width="1.51"/><path d="M-112,558L-372,519L-104,1048Z" fill="#dc988d" stroke="#dc988d" stroke-width="1.51"/><path d="M-242,104L-112,558L68,435Z" fill="#f3af9d" stroke="#f3af9d" stroke-width="1.51"/><path d="M1308,1393L1716,1322L1381,979Z" fill="#7e7e7e" stroke="#7e7e7e" stroke-width="1.51"/><path d="M1872,1118L1829,777L1596,830Z" fill="#8a8a8a" stroke="#8a8a8a" stroke-width="1.51"/><path d="M395,-417L-63,-55L243,-19Z" fill="#e98d70" stroke="#e98d70" stroke-width="1.51"/><path d="M243,-19L-63,-55L68,435Z" fill="#f4ab8c" stroke="#f4ab8c" stroke-width="1.51"/><path d="M2149,117L1707,274L1740,602Z" fill="#a29994" stroke="#a29994" stroke-width="1.51"/><path d="M1740,602L1707,274L1385,387Z" fill="#bebcba" stroke="#bebcba" stroke-width="1.51"/><path d="M-63,-55L-242,104L68,435Z" fill="#ee9d83" stroke="#ee9d83" stroke-width="1.51"/><path d="M-365,1139L-297,1521L38,1412Z" fill="#894d44" stroke="#894d44" stroke-width="1.51"/><path d="M38,1412L-297,1521L710,1383Z" fill="#8c6857" stroke="#8c6857" stroke-width="1.51"/><path d="M948,1411L2027,1465L1308,1393Z" fill="#676767" stroke="#676767" stroke-width="1.51"/><path d="M1607,-2L1400,-146L1385,387Z" fill="#cba899" stroke="#cba899" stroke-width="1.51"/><path d="M960,-10L395,-417L410,-53Z" fill="#f3ae9b" stroke="#f3ae9b" stroke-width="1.51"/><path d="M410,-53L395,-417L243,-19Z" fill="#ed9c83" stroke="#ed9c83" stroke-width="1.51"/><path d="M1716,1322L1872,1118L1596,830Z" fill="#797979" stroke="#797979" stroke-width="1.51"/><path d="M1707,274L1607,-2L1385,387Z" fill="#c3b0a6" stroke="#c3b0a6" stroke-width="1.51"/><path d="M1065,-470L395,-417L960,-10Z" fill="#e79f95" stroke="#e79f95" stroke-width="1.51"/><path d="M-365,1139L-472,1499L-297,1521Z" fill="#7c3a36" stroke="#7c3a36" stroke-width="1.51"/><path d="M-704,-111L-472,1499L-365,1139Z" fill="#b87370" stroke="#b87370" stroke-width="1.51"/><path d="M1400,-146L1065,-470L960,-10Z" fill="#d9978a" stroke="#d9978a" stroke-width="1.51"/><path d="M1134,-518L1065,-470L1400,-146Z" fill="#c97e78" stroke="#c97e78" stroke-width="1.51"/><path d="M-372,519L-519,157L-365,1139Z" fill="#d98b85" stroke="#d98b85" stroke-width="1.51"/><path d="M-242,104L-519,157L-372,519Z" fill="#e2897b" stroke="#e2897b" stroke-width="1.51"/><path d="M-296,-284L-519,157L-242,104Z" fill="#d86a56" stroke="#d86a56" stroke-width="1.51"/><path d="M-296,-284L-242,104L-63,-55Z" fill="#db6e58" stroke="#db6e58" stroke-width="1.51"/><path d="M1616,-356L1134,-518L1400,-146Z" fill="#bd766e" stroke="#bd766e" stroke-width="1.51"/><path d="M1065,-470L234,-588L395,-417Z" fill="#d1847d" stroke="#d1847d" stroke-width="1.51"/><path d="M1716,1322L2027,1465L1872,1118Z" fill="#4e4e4e" stroke="#4e4e4e" stroke-width="1.51"/><path d="M1872,1118L2149,117L1829,777Z" fill="#8a8a8a" stroke="#8a8a8a" stroke-width="1.51"/><path d="M2032,-113L1607,-2L1707,274Z" fill="#a98676" stroke="#a98676" stroke-width="1.51"/><path d="M1308,1393L2027,1465L1716,1322Z" fill="#555555" stroke="#555555" stroke-width="1.51"/><path d="M-297,1521L2027,1465L948,1411Z" fill="#838383" stroke="#838383" stroke-width="1.51"/><path d="M234,-588L-296,-284L-63,-55Z" fill="#d35e4d" stroke="#d35e4d" stroke-width="1.51"/><path d="M395,-417L234,-588L-63,-55Z" fill="#db735e" stroke="#db735e" stroke-width="1.51"/><path d="M1134,-518L234,-588L1065,-470Z" fill="#c88685" stroke="#c88685" stroke-width="1.51"/><path d="M2149,117L1740,602L1829,777Z" fill="#9b9b9b" stroke="#9b9b9b" stroke-width="1.51"/><path d="M1985,-309L1616,-356L1607,-2Z" fill="#a16459" stroke="#a16459" stroke-width="1.51"/><path d="M1607,-2L1616,-356L1400,-146Z" fill="#b97e71" stroke="#b97e71" stroke-width="1.51"/><path d="M2027,1465L2149,117L1872,1118Z" fill="#707070" stroke="#707070" stroke-width="1.51"/><path d="M2149,117L2032,-113L1707,274Z" fill="#967769" stroke="#967769" stroke-width="1.51"/><path d="M-296,-284L-704,-111L-519,157Z" fill="#c35248" stroke="#c35248" stroke-width="1.51"/><path d="M-519,157L-704,-111L-365,1139Z" fill="#d48a85" stroke="#d48a85" stroke-width="1.51"/><path d="M-486,-419L-704,-111L-296,-284Z" fill="#b53234" stroke="#b53234" stroke-width="1.51"/><path d="M234,-588L-486,-419L-296,-284Z" fill="#bf3c39" stroke="#bf3c39" stroke-width="1.51"/><path d="M2149,117L1985,-309L2032,-113Z" fill="#845547" stroke="#845547" stroke-width="1.51"/><path d="M2032,-113L1985,-309L1607,-2Z" fill="#956153" stroke="#956153" stroke-width="1.51"/><path d="M1616,-356L1985,-309L1134,-518Z" fill="#a75f59" stroke="#a75f59" stroke-width="1.51"/></svg>