<svg xmlns="http://www.w3.org/2000/svg" width="1440" height="900"><path d="M840,781L608,799L824,1013Z" fill="#de448c" stroke="#de448c" stroke-width="1.51"/><path d="M608,799L405,956L824,1013Z" fill="#d94f8c" stroke="#d94f8c" stroke-width="1.51"/><path d="M824,1013L1113,869L840,781Z" fill="#df3581" stroke="#df3581" stroke-width="1.51"/><path d="M824,1013L992,1282L1113,869Z" fill="#d42a72" stroke="#d42a72" stroke-width="1.51"/><path d="M588,1492L992,1282L824,1013Z" fill="#bd3573" stroke="#bd3573" stroke-width="1.51"/><path d="M405,956L588,1492L824,1013Z" fill="#c5497e" stroke="#c5497e" stroke-width="1.51"/><path d="M-29,737L208,1073L405,956Z" fill="#d86d98" stroke="#d86d98" stroke-width="1.51"/><path d="M208,1073L588,1492L405,956Z" fill="#bf5884" stroke="#bf5884" stroke-width="1.51"/><path d="M608,799L102,584L405,956Z" fill="#da67a1" stroke="#da67a1" stroke-width="1.51"/><path d="M511,162L102,584L608,799Z" fill="#d876b5" stroke="#d876b5" stroke-width="1.51"/><path d="M840,781L511,162L608,799Z" fill="#e05fa8" stroke="#e05fa8" stroke-width="1.51"/><path d="M1113,869L1340,521L840,781Z" fill="#e72988" stroke="#e72988" stroke-width="1.51"/><path d="M1707,825L1340,521L1113,869Z" fill="#dc1f72" stroke="#dc1f72" stroke-width="1.51"/><path d="M965,133L511,162L840,781Z" fill="#dd6ab1" stroke="#dd6ab1" stroke-width="1.51"/><path d="M102,584L-29,737L405,956Z" fill="#df74a9" stroke="#df74a9" stroke-width="1.51"/><path d="M992,1282L1392,1312L1113,869Z" fill="#c71663" stroke="#c71663" stroke-width="1.51"/><path d="M1524,1424L1392,1312L992,1282Z" fill="#b00d50" stroke="#b00d50" stroke-width="1.51"/><path d="M1340,521L965,133L840,781Z" fill="#e44c9c" stroke="#e44c9c" stroke-width="1.51"/><path d="M1340,521L1179,119L965,133Z" fill="#dc609e" stroke="#dc609e" stroke-width="1.51"/><path d="M965,133L630,-72L511,162Z" fill="#d787bf" stroke="#d787bf" stroke-width="1.51"/><path d="M208,1073L83,1514L588,1492Z" fill="#ad587c" stroke="#ad587c" stroke-width="1.51"/><path d="M-356,1405L83,1514L208,1073Z" fill="#b66a85" stroke="#b66a85" stroke-width="1.51"/><path d="M-29,737L-176,845L208,1073Z" fill="#dd79a0" stroke="#dd79a0" stroke-width="1.51"/><path d="M-460,529L-176,845L-29,737Z" fill="#ea8cb8" stroke="#ea8cb8" stroke-width="1.51"/><path d="M-246,324L-29,737L102,584Z" fill="#e18dbf" stroke="#e18dbf" stroke-width="1.51"/><path d="M1179,119L1065,44L965,133Z" fill="#de70ab" stroke="#de70ab" stroke-width="1.51"/><path d="M1392,1312L1707,825L1113,869Z" fill="#cf1358" stroke="#cf1358" stroke-width="1.51"/><path d="M588,1492L1524,1424L992,1282Z" fill="#b11b5d" stroke="#b11b5d" stroke-width="1.51"/><path d="M511,162L274,24L102,584Z" fill="#ce92c5" stroke="#ce92c5" stroke-width="1.51"/><path d="M1087,-125L630,-72L965,133Z" fill="#de83b9" stroke="#de83b9" stroke-width="1.51"/><path d="M1524,1424L1707,825L1392,1312Z" fill="#b2084c" stroke="#b2084c" stroke-width="1.51"/><path d="M1340,521L1569,-6L1179,119Z" fill="#d56091" stroke="#d56091" stroke-width="1.51"/><path d="M630,-72L274,24L511,162Z" fill="#d097c8" stroke="#d097c8" stroke-width="1.51"/><path d="M274,24L15,126L102,584Z" fill="#d09bca" stroke="#d09bca" stroke-width="1.51"/><path d="M1707,825L1721,538L1340,521Z" fill="#ce2b72" stroke="#ce2b72" stroke-width="1.51"/><path d="M1065,44L1087,-125L965,133Z" fill="#df78af" stroke="#df78af" stroke-width="1.51"/><path d="M1179,119L1087,-125L1065,44Z" fill="#e076ac" stroke="#e076ac" stroke-width="1.51"/><path d="M1569,-6L1087,-125L1179,119Z" fill="#dc739f" stroke="#dc739f" stroke-width="1.51"/><path d="M15,126L-246,324L102,584Z" fill="#d89ccb" stroke="#d89ccb" stroke-width="1.51"/><path d="M1721,538L1726,340L1340,521Z" fill="#cd3e7c" stroke="#cd3e7c" stroke-width="1.51"/><path d="M1721,538L2015,650L1726,340Z" fill="#bb3572" stroke="#bb3572" stroke-width="1.51"/><path d="M1707,825L2015,650L1721,538Z" fill="#be1f68" stroke="#be1f68" stroke-width="1.51"/><path d="M1524,1424L1882,872L1707,825Z" fill="#b5094d" stroke="#b5094d" stroke-width="1.51"/><path d="M-480,1417L-356,1405L-606,1168Z" fill="#c37f90" stroke="#c37f90" stroke-width="1.51"/><path d="M-176,845L-356,1405L208,1073Z" fill="#d07793" stroke="#d07793" stroke-width="1.51"/><path d="M1726,340L1569,-6L1340,521Z" fill="#cc5485" stroke="#cc5485" stroke-width="1.51"/><path d="M-246,324L-460,529L-29,737Z" fill="#e69ac6" stroke="#e69ac6" stroke-width="1.51"/><path d="M1882,872L2015,650L1707,825Z" fill="#b7125c" stroke="#b7125c" stroke-width="1.51"/><path d="M1726,340L2089,240L1569,-6Z" fill="#b65781" stroke="#b65781" stroke-width="1.51"/><path d="M-356,1405L-480,1417L83,1514Z" fill="#b27283" stroke="#b27283" stroke-width="1.51"/><path d="M-606,1168L-356,1405L-176,845Z" fill="#d58499" stroke="#d58499" stroke-width="1.51"/><path d="M1667,-397L1065,-414L1087,-125Z" fill="#e78aaa" stroke="#e78aaa" stroke-width="1.51"/><path d="M1087,-125L1065,-414L630,-72Z" fill="#e58fbe" stroke="#e58fbe" stroke-width="1.51"/><path d="M53,-588L-114,-171L274,24Z" fill="#d9c1de" stroke="#d9c1de" stroke-width="1.51"/><path d="M274,24L-114,-171L15,126Z" fill="#d2b1d5" stroke="#d2b1d5" stroke-width="1.51"/><path d="M709,-522L274,24L630,-72Z" fill="#d9a4cf" stroke="#d9a4cf" stroke-width="1.51"/><path d="M15,126L-114,-171L-246,324Z" fill="#d4b3d7" stroke="#d4b3d7" stroke-width="1.51"/><path d="M-246,324L-632,210L-460,529Z" fill="#e4afd4" stroke="#e4afd4" stroke-width="1.51"/><path d="M-460,529L-606,1168L-176,845Z" fill="#eb90ae" stroke="#eb90ae" stroke-width="1.51"/><path d="M1524,1424L1975,1480L1882,872Z" fill="#980043" stroke="#980043" stroke-width="1.51"/><path d="M1882,872L1975,1480L2015,650Z" fill="#a60744" stroke="#a60744" stroke-width="1.51"/><path d="M588,1492L1975,1480L1524,1424Z" fill="#a20a43" stroke="#a20a43" stroke-width="1.51"/><path d="M83,1514L1975,1480L588,1492Z" fill="#a7295e" stroke="#a7295e" stroke-width="1.51"/><path d="M1065,-414L709,-522L630,-72Z" fill="#e79fc9" stroke="#e79fc9" stroke-width="1.51"/><path d="M1065,-414L1103,-530L709,-522Z" fill="#f09ec4" stroke="#f09ec4" stroke-width="1.51"/><path d="M1667,-397L1103,-530L1065,-414Z" fill="#ec91ad" stroke="#ec91ad" stroke-width="1.51"/><path d="M1569,-6L1667,-397L1087,-125Z" fill="#dd7c98" stroke="#dd7c98" stroke-width="1.51"/><path d="M2015,650L2089,240L1726,340Z" fill="#b13e70" stroke="#b13e70" stroke-width="1.51"/><path d="M1975,1480L2089,240L2015,650Z" fill="#ac1052" stroke="#ac1052" stroke-width="1.51"/><path d="M-460,529L-632,210L-606,1168Z" fill="#f19ec4" stroke="#f19ec4" stroke-width="1.51"/><path d="M-673,-66L-632,210L-246,324Z" fill="#ddc0de" stroke="#ddc0de" stroke-width="1.51"/><path d="M-114,-171L-673,-66L-246,324Z" fill="#dbc4e0" stroke="#dbc4e0" stroke-width="1.51"/><path d="M53,-588L-240,-316L-114,-171Z" fill="#e0d2e7" stroke="#e0d2e7" stroke-width="1.51"/><path d="M1910,-334L1667,-397L1569,-6Z" fill="#c97992" stroke="#c97992" stroke-width="1.51"/><path d="M709,-522L53,-588L274,24Z" fill="#d9bbdb" stroke="#d9bbdb" stroke-width="1.51"/><path d="M1103,-530L53,-588L709,-522Z" fill="#e9b2d6" stroke="#e9b2d6" stroke-width="1.51"/><path d="M2112,-228L1910,-334L1569,-6Z" fill="#bc718a" stroke="#bc718a" stroke-width="1.51"/><path d="M-240,-316L-673,-66L-114,-171Z" fill="#e1d3e7" stroke="#e1d3e7" stroke-width="1.51"/><path d="M-632,210L-673,-66L-606,1168Z" fill="#ecaed4" stroke="#ecaed4" stroke-width="1.51"/><path d="M-565,-575L-673,-66L-240,-316Z" fill="#e8e1ef" stroke="#e8e1ef" stroke-width="1.51"/><path d="M2089,240L2112,-228L1569,-6Z" fill="#b16180" stroke="#b16180" stroke-width="1.51"/><path d="M53,-588L-565,-575L-240,-316Z" fill="#e8dfee" stroke="#e8dfee" stroke-width="1.51"/></svg>